<?xml version="1.0" encoding="UTF-8"?>
<svg xmlns="http://www.w3.org/2000/svg" viewBox="0 0 1600 1000" role="img" aria-labelledby="map-title map-description" data-geometry="naturalized-v1" data-style="procedural-svg-v1" data-label-layout="decluttered-v2">
  <title id="map-title">Eldrath — Mundo Conhecido</title>
  <desc id="map-description">Mapa estruturado do mundo conhecido de Eldrath. Fatos vêm do Notion ativo; geometrias e coordenadas são adaptações cartográficas.</desc>
  <defs><linearGradient id="vesperine-transition" x1="0" x2="1"><stop offset="0" stop-color="#6f9ca5"/><stop offset="1" stop-color="#a3c4c5"/></linearGradient><linearGradient id="land-wash" x1="0" y1="0" x2="1" y2="1"><stop offset="0" stop-color="#e1d6b4"/><stop offset=".55" stop-color="#d8cca5"/><stop offset="1" stop-color="#cabc91"/></linearGradient><pattern id="paper-grain" width="24" height="24" patternUnits="userSpaceOnUse"><path d="M0 6H24M0 18H24" stroke="#c9b98f" stroke-width=".45" opacity=".16"/><path d="M6 0V24M18 0V24" stroke="#e5d8b8" stroke-width=".35" opacity=".12"/></pattern><pattern id="unknown-hatch" width="18" height="18" patternUnits="userSpaceOnUse" patternTransform="rotate(18)"><path d="M0 0V18" stroke="#756b5b" stroke-width="1" opacity=".18"/></pattern><style id="map-label-layout">#label-region-central{transform:translate(-92px,-62px)}#label-region-east{transform:translate(38px,46px)}#label-region-south{transform:translate(58px,48px)}#settlement-valgard .settlement-label{transform:translate(-28px,-20px)}#settlement-rhenmark .settlement-label{transform:translate(52px,-24px)}#landmark-southeast-branch-bridge .landmark-label{transform:translate(8px,17px)}#landmark-wandering-ruins-field .landmark-label{transform:translate(-82px,-30px)}#symbol-relief-eastern-mountains-1,#symbol-relief-eastern-mountains-3,#symbol-relief-eastern-mountains-5,#symbol-relief-grey-mountains-1,#symbol-relief-grey-mountains-3{display:none}.relief{stroke-width:6;stroke-dasharray:2 11}.terrain-symbol{fill:none;stroke-width:2.4}</style></defs>
  <style>text{font-family:Georgia,serif;fill:#302a22}.water-ocean{fill:#456d7d}.water-sea{fill:url(#vesperine-transition)}.water-label{font-size:16px;letter-spacing:2px;fill:#eef5f2;opacity:.92}.region-label{font-size:18px;letter-spacing:2px;opacity:.76}.feature-label{font-size:16px;font-style:italic}.settlement-label{font-size:13px;letter-spacing:.2px;font-weight:700;paint-order:stroke;stroke:#f4eedc;stroke-width:4px;stroke-linejoin:round}.landmark-label{font-size:13px;font-style:italic;paint-order:stroke;stroke:#f4eedc;stroke-width:3px}.landmass{fill:url(#land-wash)}.coast{fill:#d8cca5;stroke:#594f38;stroke-width:8;stroke-linejoin:round}.coastline{fill:none;stroke:#f0dfad;stroke-width:5;stroke-linecap:round}.bay{fill:#75a6b3;stroke:#315f73;stroke-width:3}.region{fill:none;stroke:#625d4c;stroke-width:2;stroke-dasharray:8 8;opacity:.55}.subregion{fill:#f2e4bd;stroke:#786d55;stroke-width:1.5;opacity:.18}.biome{stroke:none;opacity:.7}.climate-transition{fill:#fff8df;fill-opacity:.16;stroke:#fff4cf;stroke-width:2;stroke-dasharray:4 10;opacity:.82}.territory{fill:none;stroke:#8b5844;stroke-width:3;stroke-dasharray:12 8;opacity:.7}.route{fill:none;stroke:#76503b;stroke-linecap:round;opacity:.76}.route-primary{stroke-width:5}.route-secondary{stroke-width:3.5;stroke-dasharray:10 5}.route-local{stroke-width:2.5;stroke-dasharray:5 5}.route-alternative{stroke-width:3;stroke-dasharray:2 9;opacity:.58}.route[data-availability="partial"]{stroke:#806d64}.river{fill:none;stroke:#347d96;stroke-width:9;stroke-linecap:round}.lake{fill:#4d88a2;stroke:#315f73;stroke-width:3}.relief{fill:none;stroke-linejoin:round;stroke:#756b5b;stroke-width:5;stroke-dasharray:4 13;stroke-linecap:round}.terrain-symbol{opacity:.72;fill:#8e8068;fill-opacity:.28;stroke:#625846;stroke-width:2;stroke-linejoin:round}.settlement{fill:#352f25;stroke:#f4eedc;stroke-width:3}.neutral{fill:#f4eedc;stroke:#352f25;stroke-width:3}.natural-port{fill:#efe4c8;stroke:#315f73;stroke-width:4}.landmark{fill:#b65d32;stroke:#f5e3b3;stroke-width:2}.unknown{fill:url(#unknown-hatch)!important;fill:#ded9c9;fill-opacity:.82;stroke:#8f897c;stroke-width:2;stroke-dasharray:5 12}.unknown-label{font-size:19px;letter-spacing:2px;fill:#666156;paint-order:stroke;stroke:#f2efe5;stroke-width:5px}.legendary-note{font-size:14px;font-style:italic;fill:#6d614d;paint-order:stroke;stroke:#f4eedc;stroke-width:4px}</style>
  <g id="layer-oceans">
    <polygon id="ocean-endless" class="water-ocean" points="0,0 95,0 95,1000 0,1000"><title>Mar Sem Fim</title></polygon>
    <text id="label-ocean-endless" class="water-label" x="48" y="500" text-anchor="middle" transform="rotate(-90 48 500)">Mar Sem Fim</text>
  </g>
  <g id="layer-seas">
    <polygon id="sea-vesperine" class="water-sea" points="65,0 350,0 350,1000 65,1000"><title>Mar Vesperino — sem fronteira física exata</title></polygon>
    <text id="label-sea-vesperine" class="water-label" x="145" y="500" text-anchor="middle" transform="rotate(-90 145 500)">Mar Vesperino</text>
  </g>
  <g id="layer-background"><rect x="26" y="26" width="1548" height="948" rx="10" fill="none" stroke="#e8e0c8" stroke-width="3" opacity=".7"/></g>
  <g id="layer-continents">
    <polygon id="continent-eldrath" class="landmass" points="190,0 669.4,18 1134.7,18 1600,0 1600,340 1600,670 1600,1000 1195.4,982 802.7,1000 410,1000 366,965.25 342.9,913.55 300,880 289.6,836.45 259.9,802.35 250,760 227.6,707.8 214.4,655 210,600 211.4,537.425 203.15,478.025 185,420 180.1,378.925 181.75,339.325 190,300 206.5,198 173.5,99"><title>Eldrath</title></polygon>
  </g>
  <g id="layer-bays">
    <path id="bay-thalmoor" class="bay" d="M 211.1 583.75 Q 210 570 218.775 569.675 Q 227.55 569.35 235.8 567.7 Q 244.05 566.05 252.025 563.025 Q 260 560 273 564.875 Q 286 569.75 297.55 576.35 Q 309.1 582.95 319.55 591.475 Q 330 600 321.55 609.1 Q 313.1 618.2 309.8 630.3 Q 306.5 642.4 298.25 651.2 Q 290 660 279.525 659.95 Q 269.05 659.9 259.7 654.95 Q 250.35 650 240.175 650 Q 230 650 228.8 635.85 Q 227.6 621.7 219.9 609.6 Q 212.2 597.5 211.1 583.75 Z"><title>Baía de Thalmoor</title></path>
  </g>
  <g id="layer-regions">
    <path id="region-central" class="region" d="M 375.425 366.575 Q 390 330 445.638 331.15 Q 501.275 332.3 554.075 324.875 Q 606.875 317.45 658.438 301.225 Q 710 285 756.263 290.6 Q 802.525 296.2 845.425 308.575 Q 888.325 320.95 929.163 340.475 Q 970 360 955.225 408.2 Q 940.45 456.4 949.8 506.45 Q 959.15 556.5 944.575 603.25 Q 930 650 873.252 665.738 Q 816.503 681.477 758.3 670.2 Q 700.097 658.923 645.048 674.462 Q 590 690 551.075 661.025 Q 512.15 632.05 463.75 624.35 Q 415.35 616.65 377.675 588.325 Q 340 560 342.175 519.525 Q 344.35 479.05 352.6 441.1 Q 360.85 403.15 375.425 366.575 Z"><title>Terras Centrais</title></path>
    <path id="region-west" class="region" d="M 173.4 299.6 Q 180 260 213.775 277.675 Q 247.55 295.35 282.2 306.9 Q 316.85 318.45 353.425 324.225 Q 390 330 387.825 370.475 Q 385.65 410.95 377.4 448.9 Q 369.15 486.85 354.575 523.425 Q 340 560 353.2 597.025 Q 366.4 634.05 395.55 661 Q 424.7 687.95 437.35 723.975 Q 450 760 412.975 746.8 Q 375.95 733.6 349 704.45 Q 322.05 675.3 286.025 662.65 Q 250 650 242.225 622.575 Q 234.45 595.15 214.65 574.25 Q 194.85 553.35 187.425 526.675 Q 180 500 173.4 459.2 Q 166.8 418.4 166.8 378.8 Q 166.8 339.2 173.4 299.6 Z"><title>Costas do Oeste</title></path>
    <path id="region-east" class="region" d="M 967.25 276.5 Q 970 260 1014.25 277.625 Q 1058.5 295.25 1103.05 305.15 Q 1147.6 315.05 1193.8 317.525 Q 1240 320 1259.1 351.8 Q 1278.2 383.6 1291.4 416.6 Q 1304.6 449.6 1312.3 484.8 Q 1320 520 1292.95 547.025 Q 1265.9 574.05 1254.35 610.9 Q 1242.8 647.75 1216.4 673.875 Q 1190 700 1144.42 698.65 Q 1098.85 697.3 1058.7 674.75 Q 1018.55 652.2 974.275 651.1 Q 930 650 944.775 601.8 Q 959.55 553.6 950.2 503.55 Q 940.85 453.5 955.425 406.75 Q 970 360 967.25 343 Q 964.5 326 964.5 309.5 Q 964.5 293 967.25 276.5 Z"><title>Montanhas Orientais</title></path>
    <path id="region-plains" class="region" d="M 409.962 174.7 Q 420 145 486.761 150.588 Q 553.522 156.176 617.872 152.876 Q 682.222 149.576 746.111 137.288 Q 810 125 856.4 131.45 Q 902.8 137.9 945.7 151.1 Q 988.6 164.3 1029.3 184.65 Q 1070 205 1048.74 228.6 Q 1027.47 252.2 1019.5 283.275 Q 1011.52 314.35 990.763 337.175 Q 970 360 923.737 354.4 Q 877.475 348.8 838.7 322.125 Q 799.925 295.45 754.962 290.225 Q 710 285 654.362 283.85 Q 598.725 282.7 548.4 307.725 Q 498.075 332.75 444.038 331.375 Q 390 330 390.012 297.725 Q 390.025 265.45 394.975 234.925 Q 399.925 204.4 409.962 174.7 Z"><title>Grandes Planícies</title></path>
    <path id="region-south" class="region" d="M 487.4 789.975 Q 450 760 475.725 751.95 Q 501.45 743.9 524.55 732.35 Q 547.65 720.8 568.825 705.4 Q 590 690 646.748 674.262 Q 703.497 658.523 759.597 651.923 Q 815.697 645.323 872.848 647.662 Q 930 650 972.825 665.65 Q 1015.65 681.3 1061.3 675.25 Q 1106.95 669.2 1148.47 684.6 Q 1190 700 1170.33 729.35 Q 1150.65 758.7 1119.3 775.75 Q 1087.95 792.8 1068.97 821.4 Q 1050 850 989.227 849.59 Q 928.454 849.181 873.25 875.25 Q 818.046 901.319 759.023 900.66 Q 700 900 653.65 883.075 Q 607.3 866.15 566.05 843.05 Q 524.8 819.95 487.4 789.975 Z"><title>Deserto do Sul</title></path>
    <path id="region-north" class="region" d="M 177.8 193.2 Q 180 180 224.975 171.575 Q 269.95 163.15 311.2 148.3 Q 352.45 133.45 391.225 111.725 Q 430 90 488.46 85.2742 Q 546.92 80.5485 603.02 84.6735 Q 659.12 88.7985 714.56 101.899 Q 770 115 820.638 136.275 Q 871.275 157.55 926.55 152.875 Q 981.825 148.2 1030.91 169.1 Q 1080 190 1075 197.5 Q 1070 205 1028 184.25 Q 986 163.5 938.7 164.6 Q 891.4 165.7 850.7 145.35 Q 810 125 744.161 137.388 Q 678.322 149.776 613.972 153.076 Q 549.622 156.376 484.811 150.688 Q 420 145 376.038 157.95 Q 332.075 170.9 292.475 189.875 Q 252.875 208.85 216.438 234.425 Q 180 260 177.8 246.4 Q 175.6 232.8 175.6 219.6 Q 175.6 206.4 177.8 193.2 Z"><title>Norte Congelado</title></path>
  </g>
  <g id="layer-coasts">
    <path id="coast-west" class="coastline" d="M 185 300 Q 176.7 340.525 175.875 360.325 Q 175.05 380.125 177.525 400.062 Q 180 420 186.7 439.85 Q 193.4 459.7 196.7 479.5 Q 200 499.3 200 519.65 Q 200 540 205.475 560.075 Q 210.95 580.15 225.25 595.55 Q 239.55 610.95 244.775 630.475 T 250 650"><title>Costas do Oeste</title></path>
  </g>
  <g id="layer-biomes">
    <path id="biome-north" class="biome" fill="#dce8e5" d="M 241.45 131.775 Q 220 115 263.6 115.075 Q 307.2 115.15 348.45 108.55 Q 389.7 101.95 429.85 88.475 Q 470 75 526.78 70.2757 Q 583.56 65.5514 638.01 69.6764 Q 692.46 73.8014 746.23 86.9007 Q 800 100 843.837 120.175 Q 887.675 140.35 936.35 137.875 Q 985.025 135.4 1027.51 155.2 Q 1070 175 1057.78 185.7 Q 1045.55 196.4 1029.6 200.25 Q 1013.65 204.1 1001.83 214.55 Q 990 225 927.465 213.457 Q 864.929 201.915 803.15 217.425 Q 741.371 232.935 680.685 221.468 Q 620 210 571.388 222.225 Q 522.775 234.45 474.925 238.575 Q 427.075 242.7 378.538 238.85 Q 330 235 314.6 211.575 Q 299.2 188.15 281.05 168.35 Q 262.9 148.55 241.45 131.775 Z"><title>Tundra setentrional</title></path>
    <path id="biome-ossandra" class="biome" fill="#557a52" d="M 459.825 370.35 Q 470 350 508.5 349.25 Q 547 348.5 583.3 341.9 Q 619.6 335.3 654.8 322.65 Q 690 310 709.2 320.85 Q 728.4 331.7 744.9 344.9 Q 761.4 358.1 775.7 374.05 Q 790 390 779.212 413.55 Q 768.425 437.1 769.8 463.225 Q 771.175 489.35 760.588 512.175 Q 750 535 718.388 544.475 Q 686.775 553.95 654.05 547.625 Q 621.325 541.3 590.663 550.65 Q 560 560 540.1 542.825 Q 520.2 525.65 494.35 519.6 Q 468.5 513.55 449.25 496.775 Q 430 480 433.225 456.8 Q 436.45 433.6 443.05 412.15 Q 449.65 390.7 459.825 370.35 Z"><title>Floresta de Ossandra</title></path>
    <path id="biome-plains" class="biome" fill="#b8bd75" d="M 424.637 197 Q 430 175 491.947 178.869 Q 553.895 182.738 613.295 177.788 Q 672.695 172.838 731.347 158.919 Q 790 145 831.025 150.575 Q 872.05 156.15 910 167.7 Q 947.95 179.25 983.975 197.125 Q 1020 215 1003.24 232.35 Q 986.475 249.7 979.6 273.075 Q 972.725 296.45 956.362 313.225 Q 940 330 899.525 327.825 Q 859.05 325.65 823.85 304.75 Q 788.65 283.85 749.325 281.925 Q 710 280 659.875 277.125 Q 609.75 274.25 563.55 295.15 Q 517.35 316.05 468.675 313.025 Q 420 310 417.987 286.775 Q 415.975 263.55 417.625 241.275 Q 419.275 219 424.637 197 Z"><title>Estepe das Grandes Planícies</title></path>
    <path id="biome-xerath" class="biome" fill="#d8b66f" d="M 514.638 766.825 Q 520 755 585.425 758.012 Q 650.851 761.024 713.551 755.249 Q 776.251 749.474 838.125 734.737 Q 900 720 935.788 725.55 Q 971.575 731.1 1004.58 741.825 Q 1037.58 752.55 1068.79 768.775 Q 1100 785 1086.04 795.825 Q 1072.08 806.65 1064.65 822.875 Q 1057.22 839.1 1043.61 849.55 Q 1030 860 974.983 875.735 Q 919.966 891.469 863.35 880.2 Q 806.734 868.931 753.367 884.465 Q 700 900 667.925 882.6 Q 635.85 865.2 599 864.65 Q 562.15 864.1 531.075 847.05 Q 500 830 501.337 816.7 Q 502.675 803.4 505.975 791.025 Q 509.275 778.65 514.638 766.825 Z"><title>Núcleo conhecido do Deserto do Sul</title></path>
    <path id="biome-west-coast" class="biome" fill="#7f9e79" d="M 199.088 320.475 Q 205 285 231.538 298.887 Q 258.075 312.775 285.3 321.85 Q 312.525 330.925 341.263 335.462 Q 370 340 369.25 378.5 Q 368.5 417 361.9 453.3 Q 355.3 489.6 342.65 524.8 Q 330 560 340.9 589.675 Q 351.8 619.35 375.45 640.8 Q 399.1 662.25 409.55 691.125 Q 420 720 392.3 710.525 Q 364.6 701.05 344.25 679.6 Q 323.9 658.15 296.95 649.075 Q 270 640 262.8 614.412 Q 255.6 588.825 237.175 569.3 Q 218.75 549.775 211.875 524.888 Q 205 500 199.088 463.45 Q 193.175 426.9 193.175 391.425 Q 193.175 355.95 199.088 320.475 Z"><title>Costa temperada marítima ocidental</title></path>
    <path id="biome-east-alpine" class="biome" fill="#9a998f" d="M 988.625 298.425 Q 990 280 1026.03 294.55 Q 1062.05 309.1 1098.35 317.35 Q 1134.65 325.6 1172.33 327.8 Q 1210 330 1228.55 358.4 Q 1247.1 386.8 1260.3 416.5 Q 1273.5 446.2 1281.75 478.1 Q 1290 510 1265.2 533.9 Q 1240.4 557.8 1229.4 590.8 Q 1218.4 623.8 1194.2 646.9 Q 1170 670 1133.2 668.975 Q 1096.4 667.95 1063.95 649.8 Q 1031.5 631.65 995.75 630.825 Q 960 630 973.4 590.3 Q 986.8 550.6 980.2 508.8 Q 973.6 467 986.8 428.5 Q 1000 390 995.275 371.575 Q 990.55 353.15 988.9 335 Q 987.25 316.85 988.625 298.425 Z"><title>Cobertura altitudinal oriental</title></path>
    <path id="biome-lumen-floodplains" class="biome" fill="#91aa78" d="M 296.55 602.1 Q 285 590 306.087 589.05 Q 327.175 588.1 346.975 583.975 Q 366.775 579.85 385.887 572.425 Q 405 565 429.538 554.925 Q 454.075 544.85 478.825 539.075 Q 503.575 533.3 529.288 531.65 Q 555 530 582.312 528.312 Q 609.625 526.625 633.275 512.325 Q 656.925 498.025 683.463 496.513 Q 710 495 726.7 495.788 Q 743.4 496.575 757.975 505.1 Q 772.55 513.625 788.775 514.312 Q 805 515 787.338 521.737 Q 769.675 528.475 757.025 542.775 Q 744.375 557.075 727.188 563.538 Q 710 570 682.2 581.475 Q 654.4 592.95 626.35 599.55 Q 598.3 606.15 569.15 608.075 Q 540 610 509.15 611.987 Q 478.3 613.975 449.425 620.575 Q 420.55 627.175 392.775 638.587 Q 365 650 349.75 642 Q 334.5 634 321.3 624.1 Q 308.1 614.2 296.55 602.1 Z"><title>Várzeas do Lumen</title></path>
    <path id="biome-southern-steppe" class="biome" fill="#c9ae70" d="M 448.488 664.075 Q 450 655 523.726 658.878 Q 597.453 662.756 668.403 657.806 Q 739.353 652.856 809.676 638.928 Q 880 625 920.888 629.725 Q 961.775 634.45 999.725 645.175 Q 1037.67 655.9 1073.84 672.95 Q 1110 690 1096.72 696.575 Q 1083.45 703.15 1074.65 715.25 Q 1065.85 727.35 1052.92 733.675 Q 1040 740 974.046 751.543 Q 908.092 763.087 843.05 747.575 Q 778.008 732.063 714.004 743.532 Q 650 755 617.237 741.85 Q 584.475 728.7 549 732.275 Q 513.525 735.85 481.762 722.925 Q 450 710 448.488 700.65 Q 446.975 691.3 446.975 682.225 Q 446.975 673.15 448.488 664.075 Z"><title>Estepe semiárida meridional</title></path>
    <path id="biome-southern-wastes" class="biome" fill="#d2a96b" d="M 476.562 710.45 Q 480 700 558.883 703.024 Q 637.766 706.048 713.666 700.273 Q 789.566 694.498 864.783 679.749 Q 940 665 974.225 671.675 Q 1008.45 678.35 1039.8 689.9 Q 1071.15 701.45 1100.57 718.225 Q 1130 735 1116.18 744.975 Q 1102.35 754.95 1094.65 770.35 Q 1086.95 785.75 1073.47 795.375 Q 1060 805 995.873 817.388 Q 931.746 829.775 868.1 815.1 Q 804.454 800.425 742.227 812.712 Q 680 825 645.95 809.025 Q 611.9 793.05 573.95 794.7 Q 536 796.35 503 780.675 Q 470 765 469.913 753.675 Q 469.825 742.35 471.475 731.625 Q 473.125 720.9 476.562 710.45 Z"><title>Ermos secos meridionais</title></path>
    <path id="biome-northern-cold-prairie" class="biome" fill="#aebd91" d="M 263.675 187.425 Q 270 180 377.457 184.743 Q 484.914 189.486 588.864 185.361 Q 692.814 181.236 796.407 168.118 Q 900 155 925.175 159.65 Q 950.35 164.3 973.45 172.55 Q 996.55 180.8 1018.27 192.9 Q 1040 205 1023.19 211.875 Q 1006.38 218.75 994.55 232.775 Q 982.725 246.8 966.362 253.4 Q 950 260 858.45 271.547 Q 766.9 283.093 677.3 267.575 Q 587.7 252.057 498.85 263.528 Q 410 275 382.337 262.675 Q 354.675 250.35 324.15 252.275 Q 293.625 254.2 266.812 242.1 Q 240 230 243.725 220.675 Q 247.45 211.35 252.4 203.1 Q 257.35 194.85 263.675 187.425 Z"><title>Pradarias frias setentrionais</title></path>
    <path id="biome-northern-sparse-woodland" class="biome" fill="#91aa8d" d="M 302.575 153.938 Q 310 145 402.133 150.594 Q 494.266 156.188 583.366 152.888 Q 672.466 149.588 761.233 137.294 Q 850 125 878.987 131.65 Q 907.975 138.3 934.375 149.025 Q 960.775 159.75 985.388 174.875 Q 1010 190 995.162 195.45 Q 980.325 200.9 969.6 212.725 Q 958.875 224.55 944.438 229.775 Q 930 235 843.476 245.698 Q 756.953 256.397 672.45 240.05 Q 587.947 223.703 503.974 234.352 Q 420 245 396.45 234.213 Q 372.9 223.425 346.775 224.8 Q 320.65 226.175 297.825 215.587 Q 275 205 279.3 193.837 Q 283.6 182.675 289.375 172.775 Q 295.15 162.875 302.575 153.938 Z"><title>Vegetação esparsa setentrional</title></path>
  </g>
  <g id="layer-climate-transitions">
    <path id="transition-central-west-maritime" class="climate-transition" data-transition-kind="maritime" d="M 309 335.475 Q 320 300 338.15 306.425 Q 356.3 312.85 374.45 316.15 Q 392.6 319.45 411.3 319.725 Q 430 320 432.625 363.188 Q 435.25 406.375 431.125 447.625 Q 427 488.875 416 529.438 Q 405 570 411.65 598.987 Q 418.3 627.975 437.825 650.8 Q 457.35 673.625 463.675 701.812 Q 470 730 448.775 728.2 Q 427.55 726.4 409.4 714.85 Q 391.25 703.3 370.625 701.65 Q 350 700 344.75 667.75 Q 339.5 635.5 319.7 609.1 Q 299.9 582.7 294.95 551.35 Q 290 520 289.05 481.775 Q 288.1 443.55 293.05 407.25 Q 298 370.95 309 335.475 Z"><title>Transição marítima ocidental — interior temperado → faixa de influência marítima → costa temperada úmida — limites aproximados</title></path>
    <path id="transition-central-east-elevation" class="climate-transition" data-transition-kind="elevation" d="M 844.5 333 Q 850 300 877.75 301 Q 905.5 302 931.9 298.7 Q 958.3 295.4 984.15 287.7 Q 1010 280 1027.42 341.695 Q 1044.84 403.389 1053.09 464.439 Q 1061.34 525.489 1060.67 587.745 Q 1060 650 1031.7 652.4 Q 1003.4 654.8 979.2 670.2 Q 955 685.6 927.5 687.8 Q 900 690 886.275 659.075 Q 872.55 628.15 874.75 594.05 Q 876.95 559.95 863.475 529.975 Q 850 500 855.5 466 Q 861 432 850 399 Q 839 366 844.5 333 Z"><title>Transição de altitude oriental — encostas temperadas → planalto frio e ventoso → cotas altas com neve persistente — limites aproximados</title></path>
    <path id="transition-central-plains-steppe" class="climate-transition" data-transition-kind="steppe" d="M 379.175 275.125 Q 380 260 445.308 263.872 Q 510.617 267.744 573.317 262.794 Q 636.017 257.844 698.008 243.922 Q 760 230 807.412 231.925 Q 854.825 233.85 899.375 242.925 Q 943.925 252 986.962 268.5 Q 1030 285 1017.46 297.8 Q 1004.93 310.6 999.7 327.925 Q 994.475 345.25 982.237 357.625 Q 970 370 922.588 368.075 Q 875.175 366.15 833.65 342.225 Q 792.125 318.3 746.062 316.65 Q 700 315 646.338 312.425 Q 592.675 309.85 543.45 332.675 Q 494.225 355.5 442.112 352.75 Q 390 350 385.825 334.975 Q 381.65 319.95 380 305.1 Q 378.35 290.25 379.175 275.125 Z"><title>Transição para a estepe das Planícies — campos temperados → pradarias abertas → estepe temperada — limites aproximados</title></path>
    <path id="transition-southern-aridity" class="climate-transition" data-transition-kind="aridity" d="M 430.55 637.05 Q 430 620 506.9 625.591 Q 583.799 631.182 658.049 627.882 Q 732.299 624.582 806.15 612.291 Q 880 600 929.8 605.9 Q 979.6 611.8 1025.8 625 Q 1072 638.2 1116 659.1 Q 1160 680 1143.38 696.5 Q 1126.75 713 1119.6 735.55 Q 1112.45 758.1 1096.22 774.05 Q 1080 790 1013.93 800.697 Q 947.861 811.394 883.05 795.05 Q 818.239 778.706 754.119 789.353 Q 690 800 651.4 779.8 Q 612.8 759.6 568.8 759.6 Q 524.8 759.6 487.4 739.8 Q 450 720 443.85 703.55 Q 437.7 687.1 434.4 670.6 Q 431.1 654.1 430.55 637.05 Z"><title>Gradiente de aridez meridional — campos férteis → campos secos → estepe semiárida → ermos secos → núcleo desértico — limites aproximados</title></path>
    <path id="transition-northern-cold" class="climate-transition" data-transition-kind="cold" d="M 212 165.075 Q 190 145 244.075 145.025 Q 298.15 145.05 349.3 136.8 Q 400.45 128.55 450.225 111.775 Q 500 95 551.413 89.3 Q 602.825 83.6 652.325 86.075 Q 701.825 88.55 750.913 99.275 Q 800 110 845.675 129.6 Q 891.35 149.2 941.4 145.35 Q 991.45 141.5 1035.72 160.75 Q 1080 180 1072.28 196.95 Q 1064.55 213.9 1049.7 225.45 Q 1034.85 237 1027.42 253.5 Q 1020 270 952.449 257.611 Q 884.899 245.222 818 259.9 Q 751.101 274.578 685.551 262.289 Q 620 250 566.562 264.75 Q 513.125 279.5 460.325 285.275 Q 407.525 291.05 353.763 288.025 Q 300 285 285.15 258.175 Q 270.3 231.35 252.15 208.25 Q 234 185.15 212 165.075 Z"><title>Gradiente frio setentrional — estepe temperada → pradaria fria → vegetação esparsa → tundra → congelamento prolongado — limites aproximados</title></path>
  </g>
  <g id="layer-subregions">
    <path id="subregion-valgard-valley" class="subregion" d="M 619.625 477.225 Q 610 450 640.875 453.25 Q 671.75 456.5 701.45 454.85 Q 731.15 453.2 760.575 446.6 Q 790 440 799.225 464.675 Q 808.45 489.35 813.4 514.1 Q 818.35 538.85 819.175 564.425 Q 820 590 788.575 590.15 Q 757.15 590.3 729.1 605.15 Q 701.05 620 670.525 620 Q 640 620 630.225 591.925 Q 620.45 563.85 624.85 534.15 Q 629.25 504.45 619.625 477.225 Z"><title>Vale de Valgard</title></path>
    <path id="subregion-ashvale-valley" class="subregion" d="M 811.825 570.075 Q 800 550 824.625 548.75 Q 849.25 547.5 872.35 542.55 Q 895.45 537.6 917.725 528.8 Q 940 520 948.675 541.275 Q 957.35 562.55 962.3 584 Q 967.25 605.45 968.625 627.725 Q 970 650 948.775 651.8 Q 927.55 653.6 909.4 665.15 Q 891.25 676.7 870.625 678.35 Q 850 680 837.925 659.275 Q 825.85 638.55 824.75 614.35 Q 823.65 590.15 811.825 570.075 Z"><title>Vale de Ashvale</title></path>
    <path id="subregion-eastern-hills" class="subregion" d="M 770.175 340.35 Q 760 320 793.725 327.2 Q 827.45 334.4 860.45 336.05 Q 893.45 337.7 926.725 333.85 Q 960 330 964.45 346.725 Q 968.9 363.45 970.55 379.95 Q 972.2 396.45 971.1 413.225 Q 970 430 940.55 428.725 Q 911.1 427.45 884.15 440.1 Q 857.2 452.75 828.6 451.375 Q 800 450 789.625 429 Q 779.25 408 779.8 384.35 Q 780.35 360.7 770.175 340.35 Z"><title>Colinas Orientais</title></path>
  </g>
  <g id="layer-territories">
    <path id="territory-valgard" class="territory" d="M 590.925 443.75 Q 600 430 632.3 435.225 Q 664.6 440.45 695.95 440.45 Q 727.3 440.45 758.65 435.225 Q 790 430 799.5 456.375 Q 809 482.75 813.95 509.15 Q 818.9 535.55 819.45 562.775 Q 820 590 785.175 589.6 Q 750.35 589.2 719 605.15 Q 687.65 621.1 653.825 620.55 Q 620 620 607.05 604.65 Q 594.1 589.3 589.7 569.5 Q 585.3 549.7 572.65 534.85 Q 560 520 569.275 505.8 Q 578.55 491.6 580.2 474.55 Q 581.85 457.5 590.925 443.75 Z"><title>Território de Valgard</title></path>
    <path id="territory-fenhollow" class="territory" d="M 769.075 363.925 Q 760 340 788.625 346.375 Q 817.25 352.75 845.3 354.4 Q 873.35 356.05 901.675 353.025 Q 930 350 933.3 370.4 Q 936.6 390.8 936.6 410.6 Q 936.6 430.4 933.3 450.2 Q 930 470 905.65 469.55 Q 881.3 469.1 859.3 480.1 Q 837.3 491.1 813.65 490.55 Q 790 490 780.775 465.325 Q 771.55 440.65 774.85 414.25 Q 778.15 387.85 769.075 363.925 Z"><title>Território de Fenhollow</title></path>
    <path id="territory-kragmoor" class="territory" d="M 996.225 456.3 Q 980 420 1019.93 421.225 Q 1059.85 422.45 1097.8 417.5 Q 1135.75 412.55 1172.88 401.275 Q 1210 390 1220.55 433.65 Q 1231.1 477.3 1234.4 520.2 Q 1237.7 563.1 1233.85 606.55 Q 1230 650 1197.7 644.775 Q 1165.4 639.55 1134.05 650 Q 1102.7 660.45 1071.35 655.225 Q 1040 650 1023.48 612.55 Q 1006.95 575.1 1009.7 533.85 Q 1012.45 492.6 996.225 456.3 Z"><title>Território de Kragmoor</title></path>
    <path id="territory-thalmoor" class="territory" d="M 193.675 427.775 Q 200 400 228.35 408.075 Q 256.7 416.15 284.75 419.45 Q 312.8 422.75 341.4 421.375 Q 370 420 378.85 463.925 Q 387.7 507.85 389.35 550.75 Q 391 593.65 385.5 636.825 Q 380 680 358.175 674.725 Q 336.35 669.45 314.35 674.95 Q 292.35 680.45 271.175 675.225 Q 250 670 237.05 654.65 Q 224.1 639.3 219.7 619.5 Q 215.3 599.7 202.65 584.85 Q 190 570 196.375 541.375 Q 202.75 512.75 195.05 484.15 Q 187.35 455.55 193.675 427.775 Z"><title>Território de Thalmoor</title></path>
    <path id="territory-rhenmark" class="territory" d="M 545.575 191.175 Q 520 170 589.7 179 Q 659.4 188 727.05 188 Q 794.7 188 862.35 179 Q 930 170 942.075 190.725 Q 954.15 211.45 962.4 232.9 Q 970.65 254.35 975.325 277.175 Q 980 300 923.356 294.416 Q 866.711 288.833 813.35 310.1 Q 759.989 331.367 704.994 325.684 Q 650 320 623.775 298.075 Q 597.55 276.15 584.35 244.25 Q 571.15 212.35 545.575 191.175 Z"><title>Território nômade de Rhenmark</title></path>
    <path id="territory-xerath" class="territory" d="M 492.85 722.375 Q 500 710 582.161 713.882 Q 664.323 717.765 743.523 712.815 Q 822.723 707.865 901.361 693.932 Q 980 680 1001.12 702.75 Q 1022.25 725.5 1038.75 750.25 Q 1055.25 775 1067.62 802.5 Q 1080 830 1014.23 829.577 Q 948.452 829.154 888.1 855.25 Q 827.748 881.346 763.874 880.673 Q 700 880 658.425 871.025 Q 616.85 862.05 583.85 834.55 Q 550.85 807.05 510.425 798.525 Q 470 790 477.3 777.225 Q 484.6 764.45 485.15 749.6 Q 485.7 734.75 492.85 722.375 Z"><title>Território de Xerath</title></path>
    <path id="territory-ashvale" class="territory" d="M 820.45 562 Q 810 540 834.35 540.45 Q 858.7 540.9 881.8 537.6 Q 904.9 534.3 927.45 527.15 Q 950 520 956.975 541.55 Q 963.95 563.1 967.25 584.55 Q 970.55 606 970.275 628 Q 970 650 948.775 651.8 Q 927.55 653.6 909.4 665.15 Q 891.25 676.7 870.625 678.35 Q 850 680 839.35 657.3 Q 828.7 634.6 829.8 609.3 Q 830.9 584 820.45 562 Z"><title>Vale neutro de Ashvale</title></path>
  </g>
  <g id="layer-lakes">
    <path id="lake-winds" class="lake" d="M 623.85 212.425 Q 620 205 627.35 202.7 Q 634.7 200.4 641.3 197.1 Q 647.9 193.8 653.95 189.4 Q 660 185 669.05 187.025 Q 678.1 189.05 686.35 192.35 Q 694.6 195.65 702.3 200.325 Q 710 205 707.338 210.675 Q 704.675 216.35 704.95 222.675 Q 705.225 229 702.612 234.5 Q 700 240 691.638 242.225 Q 683.275 244.45 674.75 242.525 Q 666.225 240.6 658.112 242.8 Q 650 245 646 237.375 Q 642 229.75 634.85 224.8 Q 627.7 219.85 623.85 212.425 Z"><title>Lago dos Ventos — seasonal</title></path>
  </g>
  <g id="layer-routes">
    <path id="route-valgard-fenhollow" class="route route-local" data-availability="year-round" data-risk="low" d="M 700 520 Q 722.875 508 732.775 500.575 Q 742.675 493.15 751.338 484.075 Q 760 475 770.962 461.887 Q 781.925 448.775 794.3 438.05 Q 806.675 427.325 820.837 418.663 T 835 410"><title>Trilha Valgard–Fenhollow — ligação de vizinhança e abastecimento — ida 1 travel-day; volta 1 travel-day; distância 20–28 km</title></path>
    <path id="route-valgard-ashvale" class="route route-local" data-availability="year-round" data-risk="low" d="M 700 520 Q 728.4 538.55 743.25 545.15 Q 758.1 551.75 774.05 555.875 Q 790 560 807.112 563.337 Q 824.225 566.675 839.9 572.45 Q 855.575 578.225 870.287 586.612 T 885 595"><title>Trilha Valgard–Ashvale — ligação de vizinhança e encontro neutro — ida 1 travel-day; volta 1 travel-day; distância 20–28 km</title></path>
    <path id="route-valgard-kragmoor" class="route route-primary" data-availability="seasonal" data-risk="high" d="M 700 520 Q 751.95 490.025 774.225 471.875 Q 796.5 453.725 815.75 431.863 Q 835 410 858.775 411.387 Q 882.55 412.775 904.825 417.725 Q 927.1 422.675 948.55 431.337 Q 970 440 988.75 453.5 Q 1007.5 467 1030.6 470.3 Q 1053.7 473.6 1071.85 486.8 T 1090 500"><title>Rota Valgard–Kragmoor — mineração, comércio e acesso militar — ida 3–4 travel-day; volta 3–4 travel-day; distância 48–72 km</title></path>
    <path id="route-valgard-thalmoor" class="route route-primary" data-availability="year-round" data-risk="moderate" d="M 700 520 Q 650.2 525.9 627.1 532.5 Q 604 539.1 582 549.55 Q 560 560 538.725 568.675 Q 517.45 577.35 496 582.3 Q 474.55 587.25 452.275 588.625 Q 430 590 407.075 591.525 Q 384.15 593.05 364.35 605.15 Q 344.55 617.25 322.275 618.625 T 300 620"><title>Rota Valgard–Thalmoor — eixo terrestre entre interior e costa — ida 4–5 travel-day; volta 4–5 travel-day; distância 80–120 km</title></path>
    <path id="route-thalmoor-xerath" class="route route-primary" data-availability="year-round" data-risk="high" d="M 300 620 Q 335.3 660.6 355.1 677.1 Q 374.9 693.6 397.45 706.8 Q 420 720 449.125 727.5 Q 478.25 735 504.65 746.55 Q 531.05 758.1 555.525 774.05 Q 580 790 610.6 794.95 Q 641.2 799.9 670.9 790 Q 700.6 780.1 730.3 785.05 T 760 790"><title>Rota Terrestre Costeira Thalmoor–Xerath — comércio costeiro terrestre — ida 7–10 travel-day; volta 7–10 travel-day; distância 150–240 km</title></path>
    <path id="route-lumen-fluvial" class="route route-primary" data-availability="seasonal" data-risk="moderate" d="M 700 520 Q 681.075 529.15 672.825 534.925 Q 664.575 540.7 657.288 547.85 Q 650 555 630.562 564.25 Q 611.125 573.5 591.325 579.275 Q 571.525 585.05 550.763 587.525 Q 530 590 508.637 592.65 Q 487.275 595.3 469.4 607.675 Q 451.525 620.05 430.763 622.525 Q 410 625 397.663 629.612 Q 385.325 634.225 372.125 632.575 Q 358.925 630.925 346.962 635.462 Q 335 640 329.6 635.638 Q 324.2 631.275 317.325 629.9 Q 310.45 628.525 305.225 624.263 T 300 620"><title>Rota Fluvial do Lumen — transporte fluvial raso entre interior e porto — ida 2–3 travel-day; volta 3–5 travel-day; distância 70–110 km</title></path>
    <path id="route-thalmoor-xerath-maritime" class="route route-primary" data-availability="seasonal" data-risk="high" d="M 300 620 Q 305.25 652.25 310.2 667.1 Q 315.15 681.95 322.575 695.975 Q 330 710 355.125 725.125 Q 380.25 740.25 401.7 758.4 Q 423.15 776.55 441.575 798.275 Q 460 820 486.375 829.5 Q 512.75 839 540.8 835.15 Q 568.85 831.3 594.425 840.65 Q 620 850 642.15 835.95 Q 664.3 821.9 690.7 819.7 Q 717.1 817.5 738.55 803.75 T 760 790"><title>Rota Marítima Thalmoor–Xerath — comércio marítimo costeiro — ida 3–5 travel-day; volta 3–5 travel-day; distância 180–320 km</title></path>
    <path id="route-rhenmark-valgard" class="route route-secondary" data-availability="seasonal" data-risk="moderate" d="M 760 235 Q 749.675 266.475 747.2 282.15 Q 744.725 297.825 744.862 313.913 Q 745 330 743.5 347.688 Q 742 365.375 737.875 381.875 Q 733.75 398.375 726.875 414.188 Q 720 430 714.125 444.75 Q 708.25 459.5 709.9 475.45 Q 711.55 491.4 705.775 505.7 T 700 520"><title>Caminho das Planícies — liga Rhenmark ao entroncamento de Valgard — ida 3–5 travel-day; volta 3–5 travel-day; distância 105–250 km</title></path>
    <path id="route-fenhollow-kragmoor" class="route route-secondary" data-availability="seasonal" data-risk="high" d="M 835 410 Q 868.4 408.425 884.075 405.125 Q 899.75 401.825 914.875 395.913 Q 930 390 945.112 397.15 Q 960.225 404.3 973.425 413.375 Q 986.625 422.45 998.312 433.725 Q 1010 445 1022.09 456.55 Q 1034.17 468.1 1050.4 472.775 Q 1066.62 477.45 1078.31 488.725 T 1090 500"><title>Passagem Fenhollow–Kragmoor — atalho de montanha para comércio e mensageria — ida 3–5 travel-day; volta 3–5 travel-day; distância 45–100 km</title></path>
    <path id="route-ashvale-xerath" class="route route-secondary" data-availability="seasonal" data-risk="high" d="M 885 595 Q 869.525 615.175 863.75 625.9 Q 857.975 636.625 853.987 648.312 Q 850 660 844.138 672.288 Q 838.275 684.575 830.85 695.3 Q 823.425 706.025 814.213 715.513 Q 805 725 795.562 734.812 Q 786.125 744.625 782.275 757.825 Q 778.425 771.025 769.213 780.513 T 760 790"><title>Trilha Ashvale–Xerath — alternativa interior para Xerath — ida 5–8 travel-day; volta 5–8 travel-day; distância 100–220 km</title></path>
    <path id="route-old-west-road" class="route route-alternative" data-availability="partial" data-risk="high" d="M 700 520 Q 667.1 507.7 650.6 504.4 Q 634.1 501.1 617.05 500.55 Q 600 500 583.55 506.15 Q 567.1 512.3 550.6 515.6 Q 534.1 518.9 517.05 519.45 Q 500 520 481.188 523.062 Q 462.375 526.125 446.975 537.675 Q 431.575 549.225 413.288 552.112 Q 395 555 380.637 568.663 Q 366.275 582.325 347.025 587.825 Q 327.775 593.325 313.888 606.662 T 300 620"><title>Estrada Velha do Oeste — memória histórica e alternativa de emergência — ida desconhecido; volta desconhecido; distância desconhecido</title></path>
    <path id="route-thalmoor-salbruma" class="route route-local" data-availability="year-round" data-risk="low" d="M 300 620 Q 295.075 596.525 290.95 585.8 Q 286.825 575.075 280.913 565.038 Q 275 555 267.7 542.225 Q 260.4 529.45 255.45 516.25 Q 250.5 503.05 247.75 489.025 T 245 475"><title>Caminho de Salbruma — abastecimento, pesca e circulação local — ida desconhecido; volta desconhecido; distância desconhecido</title></path>
    <path id="route-thalmoor-ponta-do-junco" class="route route-local" data-availability="year-round" data-risk="low" d="M 300 620 Q 293.15 608.425 289.025 603.475 Q 284.9 598.525 279.95 594.263 Q 275 590 270.637 584.6 Q 266.275 579.2 262.975 573.425 Q 259.675 567.65 257.337 561.325 T 255 555"><title>Caminho da Ponta do Junco — abastecimento, pesca e circulação local — ida desconhecido; volta desconhecido; distância desconhecido</title></path>
    <path id="route-thalmoor-enseada-baixa" class="route route-local" data-availability="year-round" data-risk="low" d="M 300 620 Q 300.05 630.475 300.875 635.425 Q 301.7 640.375 303.35 645.188 Q 305 650 310 662.5 T 315 675"><title>Caminho da Enseada Baixa — abastecimento, pesca e circulação local — ida desconhecido; volta desconhecido; distância desconhecido</title></path>
  </g>
  <g id="layer-relief">
    <path id="relief-eastern-mountains" class="relief" d="M 970 260 Q 985.45 293.9 995.35 308.75 Q 1005.25 323.6 1017.62 336.8 Q 1030 350 1040.7 362.225 Q 1051.4 374.45 1059.65 387.65 Q 1067.9 400.85 1073.95 415.425 Q 1080 430 1087.72 446.95 Q 1095.45 463.9 1110.3 475.45 Q 1125.15 487 1132.58 503.5 Q 1140 520 1151.25 535.625 Q 1162.5 551.25 1165.25 570.5 Q 1168 589.75 1179 604.875 Q 1190 620 1192.9 634.425 Q 1195.8 648.85 1205.15 660.4 Q 1214.5 671.95 1217.25 685.975 T 1220 700"><title>Montanhas Orientais — altitude não definida</title></path>
    <path id="symbol-relief-eastern-mountains-0" class="terrain-symbol" d="M 957 266.5 L 970 247 L 983 266.5 Z" aria-hidden="true"/>
    <path id="symbol-relief-eastern-mountains-1" class="terrain-symbol" d="M 1017 356.5 L 1030 337 L 1043 356.5 Z" aria-hidden="true"/>
    <path id="symbol-relief-eastern-mountains-2" class="terrain-symbol" d="M 1067 436.5 L 1080 417 L 1093 436.5 Z" aria-hidden="true"/>
    <path id="symbol-relief-eastern-mountains-3" class="terrain-symbol" d="M 1127 526.5 L 1140 507 L 1153 526.5 Z" aria-hidden="true"/>
    <path id="symbol-relief-eastern-mountains-4" class="terrain-symbol" d="M 1177 626.5 L 1190 607 L 1203 626.5 Z" aria-hidden="true"/>
    <path id="symbol-relief-eastern-mountains-5" class="terrain-symbol" d="M 1207 706.5 L 1220 687 L 1233 706.5 Z" aria-hidden="true"/>
    <path id="relief-grey-mountains" class="relief" d="M 1120 290 Q 1136.55 317.1 1146.45 328.65 Q 1156.35 340.2 1168.18 350.1 Q 1180 360 1188.72 370.8 Q 1197.45 381.6 1204.05 393.15 Q 1210.65 404.7 1215.32 417.35 Q 1220 430 1223.18 442.725 Q 1226.35 455.45 1235.15 465.35 Q 1243.95 475.25 1246.97 487.625 T 1250 500"><title>Montanhas Cinzentas — altitude não definida</title></path>
    <path id="symbol-relief-grey-mountains-0" class="terrain-symbol" d="M 1107 296.5 L 1120 277 L 1133 296.5 Z" aria-hidden="true"/>
    <path id="symbol-relief-grey-mountains-1" class="terrain-symbol" d="M 1167 366.5 L 1180 347 L 1193 366.5 Z" aria-hidden="true"/>
    <path id="symbol-relief-grey-mountains-2" class="terrain-symbol" d="M 1207 436.5 L 1220 417 L 1233 436.5 Z" aria-hidden="true"/>
    <path id="symbol-relief-grey-mountains-3" class="terrain-symbol" d="M 1237 506.5 L 1250 487 L 1263 506.5 Z" aria-hidden="true"/>
    <path id="relief-eastern-hills" class="relief" d="M 780 340 Q 802.7 350.65 814.25 353.95 Q 825.8 357.25 837.9 358.625 Q 850 360 864.425 362.9 Q 878.85 365.8 892.05 370.75 Q 905.25 375.7 917.625 382.85 T 930 390"><title>Colinas Orientais — altitude não definida</title></path>
    <path id="symbol-relief-eastern-hills-0" class="terrain-symbol" d="M 771 344.5 L 780 331 L 789 344.5 Z" aria-hidden="true"/>
    <path id="symbol-relief-eastern-hills-1" class="terrain-symbol" d="M 841 364.5 L 850 351 L 859 364.5 Z" aria-hidden="true"/>
    <path id="symbol-relief-eastern-hills-2" class="terrain-symbol" d="M 921 394.5 L 930 381 L 939 394.5 Z" aria-hidden="true"/>
    <path id="relief-western-hills" class="relief" d="M 520 440 Q 530.3 462.6 536.9 472.5 Q 543.5 482.4 551.75 491.2 Q 560 500 566.75 509.375 Q 573.5 518.75 578.45 528.65 Q 583.4 538.55 586.7 549.275 T 590 560"><title>Colinas a oeste de Valgard — altitude não definida</title></path>
    <path id="symbol-relief-western-hills-0" class="terrain-symbol" d="M 511 444.5 L 520 431 L 529 444.5 Z" aria-hidden="true"/>
    <path id="symbol-relief-western-hills-1" class="terrain-symbol" d="M 551 504.5 L 560 491 L 569 504.5 Z" aria-hidden="true"/>
    <path id="symbol-relief-western-hills-2" class="terrain-symbol" d="M 581 564.5 L 590 551 L 599 564.5 Z" aria-hidden="true"/>
    <path id="relief-valgard-valley" class="relief" d="M 640 500 Q 658.2 516.9 668.1 523.5 Q 678 530.1 689 535.05 Q 700 540 714.7 544.6 Q 729.4 549.2 742.6 555.8 Q 755.8 562.4 767.9 571.2 T 780 580"><title>Vale de Valgard — altitude não definida</title></path>
    <path id="relief-ashvale-valley" class="relief" d="M 820 560 Q 838.2 576.9 848.1 583.5 Q 858 590.1 869 595.05 Q 880 600 891.025 603.45 Q 902.05 606.9 911.95 611.85 Q 921.85 616.8 930.925 623.4 T 940 630"><title>Vale de Ashvale — altitude não definida</title></path>
    <path id="relief-vigil-peak" class="relief" d="M 1190 340 Q 1198.72 329.2 1202.03 323.425 Q 1205.33 317.65 1207.66 311.325 Q 1210 305 1214.36 310.4 Q 1218.72 315.8 1222.03 321.575 Q 1225.33 327.35 1227.66 333.675 T 1230 340"><title>Pico da Vigília — altitude não definida</title></path>
    <path id="symbol-relief-vigil-peak-0" class="terrain-symbol" d="M 1177 346.5 L 1190 327 L 1203 346.5 Z" aria-hidden="true"/>
    <path id="symbol-relief-vigil-peak-1" class="terrain-symbol" d="M 1197 311.5 L 1210 292 L 1223 311.5 Z" aria-hidden="true"/>
    <path id="symbol-relief-vigil-peak-2" class="terrain-symbol" d="M 1217 346.5 L 1230 327 L 1243 346.5 Z" aria-hidden="true"/>
    <path id="relief-kragmoor-plateau" class="relief" d="M 1030 455 Q 1054.62 453.75 1066.18 451.275 Q 1077.73 448.8 1088.86 444.4 Q 1100 440 1111.3 445.15 Q 1122.6 450.3 1132.5 456.9 Q 1142.4 463.5 1151.2 471.75 Q 1160 480 1148.42 486.85 Q 1136.85 493.7 1129.7 505.25 Q 1122.55 516.8 1111.28 523.4 Q 1100 530 1087.55 528.525 Q 1075.1 527.05 1064.65 519.9 Q 1054.2 512.75 1042.1 511.375 T 1030 510"><title>Planalto de Kragmoor — altitude não definida</title></path>
    <path id="symbol-relief-kragmoor-plateau-0" class="terrain-symbol" d="M 1021 459.5 L 1030 446 L 1039 459.5 Z" aria-hidden="true"/>
    <path id="symbol-relief-kragmoor-plateau-1" class="terrain-symbol" d="M 1091 444.5 L 1100 431 L 1109 444.5 Z" aria-hidden="true"/>
    <path id="symbol-relief-kragmoor-plateau-2" class="terrain-symbol" d="M 1151 484.5 L 1160 471 L 1169 484.5 Z" aria-hidden="true"/>
    <path id="symbol-relief-kragmoor-plateau-3" class="terrain-symbol" d="M 1091 534.5 L 1100 521 L 1109 534.5 Z" aria-hidden="true"/>
    <path id="symbol-relief-kragmoor-plateau-4" class="terrain-symbol" d="M 1021 514.5 L 1030 501 L 1039 514.5 Z" aria-hidden="true"/>
    <path id="relief-high-iron-pass" class="relief" d="M 965 420 Q 980.35 432.95 988.6 437.9 Q 996.85 442.85 1005.92 446.425 Q 1015 450 1023.48 453.862 Q 1031.95 457.725 1039.38 462.675 Q 1046.8 467.625 1053.4 473.812 T 1060 480"><title>Passo do Alto Ferro — altitude não definida</title></path>
  </g>
  <g id="layer-rivers">
    <path id="river-lumen" class="river" d="M 1040 360 Q 1010.6 369.2 997.4 375.8 Q 984.2 382.4 972.1 391.2 Q 960 400 946.212 411.825 Q 932.425 423.65 917.575 432.725 Q 902.725 441.8 886.362 448.4 Q 870 455 849.65 462.175 Q 829.3 469.35 814.45 485.3 Q 799.6 501.25 779.8 508.125 Q 760 515 742.4 524.825 Q 724.8 534.65 704.45 535.2 Q 684.1 535.75 667.05 545.375 Q 650 555 628.638 557.65 Q 607.275 560.3 589.4 572.675 Q 571.525 585.05 550.763 587.525 Q 530 590 510.562 599.25 Q 491.125 608.5 471.325 614.275 Q 451.525 620.05 430.763 622.525 Q 410 625 396.837 625.487 Q 383.675 625.975 371.3 628.45 Q 358.925 630.925 346.962 635.462 T 335 640"><title>Rio Lumen</title></path>
    <text class="feature-label" x="650" y="537">Rio Lumen</text>
    <path id="river-fenhollow" class="river" d="M 900 370 Q 880.8 380.85 872.55 387.45 Q 864.3 394.05 857.15 402.025 Q 850 410 843.15 421.575 Q 836.3 433.15 828.05 443.05 Q 819.8 452.95 809.9 461.475 Q 800 470 791.962 476.55 Q 783.925 483.1 779.8 492.725 Q 775.675 502.35 767.838 508.675 T 760 515"><title>Riacho de Fenhollow</title></path>
    <text class="feature-label" x="800" y="452">Riacho de Fenhollow</text>
  </g>
  <g id="layer-region-labels">
    <text id="label-region-central" class="region-label" x="690" y="520" text-anchor="middle">Terras Centrais</text>
    <text id="label-region-west" class="region-label" x="300" y="520" text-anchor="middle">Costas do Oeste</text>
    <text id="label-region-east" class="region-label" x="1120" y="500" text-anchor="middle">Montanhas Orientais</text>
    <text id="label-region-plains" class="region-label" x="750" y="235" text-anchor="middle">Grandes Planícies</text>
    <text id="label-region-south" class="region-label" x="790" y="795" text-anchor="middle">Deserto do Sul</text>
    <text id="label-region-north" class="region-label" x="610" y="150" text-anchor="middle">Norte Congelado</text>
  </g>
  <g id="layer-settlements">
    <g id="settlement-valgard"><circle class="settlement" cx="700" cy="520" r="7"/><text class="settlement-label" x="715" y="508">Valgard</text><title>Valgard — village — população aproximada: 600</title></g>
    <g id="settlement-fenhollow"><circle class="settlement" cx="835" cy="410" r="7"/><text class="settlement-label" x="850" y="398">Fenhollow</text><title>Fenhollow — village — população aproximada: 350</title></g>
    <g id="settlement-ashvale"><circle class="neutral" cx="885" cy="595" r="7"/><text class="settlement-label" x="900" y="583">Ashvale</text><title>Ashvale — meeting-place — população desconhecida</title></g>
    <g id="settlement-kragmoor"><circle class="settlement" cx="1090" cy="500" r="7"/><text class="settlement-label" x="1105" y="488">Kragmoor</text><title>Kragmoor — fortress — população aproximada: 900</title></g>
    <g id="settlement-thalmoor"><circle class="settlement" cx="300" cy="620" r="9"/><text class="settlement-label" x="315" y="608">Thalmoor</text><title>Thalmoor — port — população aproximada: 1200</title></g>
    <g id="settlement-rhenmark"><circle class="settlement" cx="760" cy="235" r="7"/><text class="settlement-label" x="775" y="223">Rhenmark</text><title>Rhenmark — mobile-camp — população aproximada: 700</title></g>
    <g id="settlement-xerath"><circle class="settlement" cx="760" cy="790" r="9"/><text class="settlement-label" x="775" y="778">Xerath</text><title>Xerath — oasis-city — população aproximada: 1500</title></g>
    <g id="settlement-salbruma"><circle class="settlement" cx="245" cy="475" r="7"/><text class="settlement-label" x="260" y="463">Salbruma</text><title>Salbruma — village — população desconhecida</title></g>
    <g id="settlement-ponta-do-junco"><circle class="settlement" cx="255" cy="555" r="7"/><text class="settlement-label" x="270" y="543">Ponta do Junco</text><title>Ponta do Junco — village — população desconhecida</title></g>
    <g id="settlement-enseada-baixa"><circle class="settlement" cx="315" cy="675" r="7"/><text class="settlement-label" x="330" y="663">Enseada Baixa</text><title>Enseada Baixa — village — população desconhecida</title></g>
  </g>
  <g id="layer-landmarks">
    <g id="landmark-fogo-da-ponta"><path class="landmark" d="M 225 577 L 232 591 L 218 591 Z"/><text class="landmark-label" x="237" y="590">Fogo da Ponta</text><title>Fogo da Ponta — signal-beacon</title></g>
    <g id="landmark-southeast-branch-bridge"><path class="landmark" d="M 760 507 L 767 521 L 753 521 Z"/><text class="landmark-label" x="772" y="520">Ponte do Braço Sudeste</text><title>Ponte do Braço Sudeste — bridge</title></g>
    <g id="landmark-ashvale-standing-stones"><path class="landmark" d="M 905 602 L 912 616 L 898 616 Z"/><text class="landmark-label" x="917" y="615">Pedras Verticais de Ashvale</text><title>Pedras Verticais de Ashvale — natural-marker</title></g>
    <g id="landmark-wandering-ruins-field"><path class="landmark" d="M 690 217 L 697 231 L 683 231 Z"/><text class="landmark-label" x="702" y="230">Campo das Ruínas Errantes</text><title>Campo das Ruínas Errantes — ruin</title></g>
  </g>
  <g id="layer-natural-ports">
    <circle id="natural-port-thalmoor" class="natural-port" cx="300" cy="620" r="6"><title>Porto Natural de Thalmoor</title></circle>
  </g>
  <g id="layer-legendary">
    <text id="legend-islands-glass" class="legendary-note" x="980" y="920">LENDÁRIO · Arquipélago de Vidro · localização desconhecida</text>
    <text id="legend-route-grey-shortcut" class="legendary-note" x="980" y="942">LENDÁRIO · Atalho das Cinzentas · traçado desconhecido</text>
  </g>
  <g id="layer-unknown-regions">
    <path id="unknown-east" class="unknown" d="M 1241.17 115.3 Q 1220 90 1284.6 99 Q 1349.2 108 1411.9 108 Q 1474.6 108 1537.3 99 Q 1600 90 1600 219.2 Q 1600 348.4 1600 473.8 Q 1600 599.2 1600 724.6 Q 1600 850 1575.88 837.375 Q 1551.75 824.75 1524.25 824.75 Q 1496.75 824.75 1473.38 812.375 Q 1450 800 1428.88 777.25 Q 1407.75 754.5 1399.5 724.25 Q 1391.25 694 1370.62 672 Q 1350 650 1361.75 620.5 Q 1373.5 591 1370.2 559.1 Q 1366.9 527.2 1378.45 498.6 Q 1390 470 1372.33 436.225 Q 1354.65 402.45 1343.1 367.8 Q 1331.55 333.15 1325.78 296.575 Q 1320 260 1307.67 228.35 Q 1295.35 196.7 1278.85 168.65 Q 1262.35 140.6 1241.17 115.3 Z"><title>Além das Montanhas Orientais — extensão não mapeada</title></path>
    <text id="label-unknown-east" class="unknown-label" x="1418.57" y="458.571" text-anchor="middle">TERRAS DESCONHECIDAS</text>
    <path id="unknown-south" class="unknown" d="M 413.4 849.425 Q 420 820 532.473 825.596 Q 644.945 831.192 753.845 827.892 Q 862.745 824.592 971.373 812.296 Q 1080 800 1142.9 791 Q 1205.8 782 1266.85 782 Q 1327.9 782 1388.95 791 Q 1450 800 1474.12 812.625 Q 1498.25 825.25 1525.75 825.25 Q 1553.25 825.25 1576.62 837.625 Q 1600 850 1600 875.5 Q 1600 901 1595.88 925.75 Q 1591.75 950.5 1595.88 975.25 Q 1600 1000 1397.7 991 Q 1195.4 982 999.05 991 Q 802.7 1000 606.35 1000 Q 410 1000 406.75 969.125 Q 403.5 938.25 405.15 908.55 Q 406.8 878.85 413.4 849.425 Z"><title>Além do Deserto do Sul — extensão não mapeada</title></path>
    <text id="label-unknown-south" class="unknown-label" x="1093.33" y="878.333" text-anchor="middle">TERRAS DESCONHECIDAS</text>
    <path id="unknown-north" class="unknown" d="M 430.12 20.68 Q 420 0 581.5 9 Q 743 18 899.75 18 Q 1056.5 18 1213.25 9 Q 1370 0 1363.97 16.675 Q 1357.95 33.35 1349.7 48.2 Q 1341.45 63.05 1330.72 76.525 Q 1320 90 1270.29 84.575 Q 1220.58 79.15 1173.55 97.575 Q 1126.53 116 1078.26 110.5 Q 1030 105 983.633 109.535 Q 937.265 114.07 893.65 96.415 Q 850.035 78.76 805.017 83.38 Q 760 88 715.14 84.93 Q 670.28 81.86 628.7 100.12 Q 587.12 118.38 543.56 115.19 Q 500 112 483.32 95.16 Q 466.64 78.32 453.44 59.84 Q 440.24 41.36 430.12 20.68 Z"><title>Além do Norte Congelado — extensão não mapeada</title></path>
    <text id="label-unknown-north" class="unknown-label" x="1120" y="62" text-anchor="middle">TERRAS DESCONHECIDAS · NORTE</text>
  </g>
  <g id="map-material-overlay" pointer-events="none"><rect width="100%" height="100%" fill="url(#paper-grain)" opacity=".42"/></g>
  <g id="layer-metadata" data-world-engine="1.0.0" data-engine-status="stable"><text x="380" y="54" font-size="32" font-weight="700">Eldrath</text><text x="380" y="82" font-size="15">snapshot 3.5.0 · stable · World Engine 1.0.0</text><text x="380" y="106" font-size="13">fatos canônicos · geometrias e coordenadas aproximadas · 0 erros</text></g>
</svg>
