<?xml version="1.0" encoding="UTF-8"?>
<svg xmlns="http://www.w3.org/2000/svg" viewBox="0 0 1600 1000" role="img" aria-labelledby="map-title map-description">
  <title id="map-title">Eldrath — Mundo Conhecido</title>
  <desc id="map-description">Mapa estruturado do mundo conhecido de Eldrath. Fatos vêm do Notion ativo; geometrias e coordenadas são adaptações cartográficas.</desc>
  <defs><linearGradient id="vesperine-transition" x1="0" x2="1"><stop offset="0" stop-color="#6f9eae"/><stop offset="1" stop-color="#a3c4c5"/></linearGradient></defs>
  <style>text{font-family:Georgia,serif;fill:#29271f}.water-ocean{fill:#557f91}.water-sea{fill:url(#vesperine-transition)}.water-label{font-size:16px;letter-spacing:2px;fill:#eef5f2;opacity:.92}.region-label{font-size:20px;letter-spacing:2px;opacity:.76}.feature-label{font-size:16px;font-style:italic}.settlement-label{font-size:16px;font-weight:700;paint-order:stroke;stroke:#f4eedc;stroke-width:4px;stroke-linejoin:round}.landmass{fill:#d8cca5}.coast{fill:#d8cca5;stroke:#594f38;stroke-width:8;stroke-linejoin:round}.coastline{fill:none;stroke:#f0dfad;stroke-width:5;stroke-linecap:round}.bay{fill:#75a6b3;stroke:#315f73;stroke-width:3}.region{fill:none;stroke:#625d4c;stroke-width:2;stroke-dasharray:8 8;opacity:.55}.subregion{fill:#f2e4bd;stroke:#786d55;stroke-width:1.5;opacity:.18}.biome{stroke:none;opacity:.7}.territory{fill:none;stroke:#8d513d;stroke-width:3;stroke-dasharray:12 8;opacity:.7}.route{fill:none;stroke:#7b563f;stroke-width:4;stroke-dasharray:8 7;stroke-linecap:round;opacity:.72}.river{fill:none;stroke:#397c9b;stroke-width:9;stroke-linecap:round}.lake{fill:#4d88a2;stroke:#315f73;stroke-width:3}.relief{fill:none;stroke:#675c4d;stroke-width:5;stroke-dasharray:4 13;stroke-linecap:round}.settlement{fill:#352f25;stroke:#f4eedc;stroke-width:3}.neutral{fill:#f4eedc;stroke:#352f25;stroke-width:3}.natural-port{fill:#efe4c8;stroke:#315f73;stroke-width:4}.unknown{fill:#e9e5d8;fill-opacity:.82;stroke:#8f897c;stroke-width:2;stroke-dasharray:5 12}.unknown-label{font-size:19px;letter-spacing:2px;fill:#666156;paint-order:stroke;stroke:#f2efe5;stroke-width:5px}.legendary-note{font-size:14px;font-style:italic;fill:#6d614d;paint-order:stroke;stroke:#f4eedc;stroke-width:4px}</style>
  <g id="layer-oceans">
    <polygon id="ocean-endless" class="water-ocean" points="0,0 95,0 95,1000 0,1000"><title>Mar Sem Fim</title></polygon>
    <text id="label-ocean-endless" class="water-label" x="48" y="500" text-anchor="middle" transform="rotate(-90 48 500)">Mar Sem Fim</text>
  </g>
  <g id="layer-seas">
    <polygon id="sea-vesperine" class="water-sea" points="65,0 350,0 350,1000 65,1000"><title>Mar Vesperino — sem fronteira física exata</title></polygon>
    <text id="label-sea-vesperine" class="water-label" x="145" y="500" text-anchor="middle" transform="rotate(-90 145 500)">Mar Vesperino</text>
  </g>
  <g id="layer-background"><rect x="26" y="26" width="1548" height="948" rx="10" fill="none" stroke="#e8e0c8" stroke-width="3" opacity=".7"/></g>
  <g id="layer-continents">
    <polygon id="continent-eldrath" class="landmass" points="190,0 1600,0 1600,1000 410,1000 300,880 250,760 210,600 185,420 190,300"><title>Eldrath</title></polygon>
  </g>
  <g id="layer-bays">
    <polygon id="bay-thalmoor" class="bay" points="210,570 260,560 330,600 290,660 230,650"><title>Baía de Thalmoor</title></polygon>
  </g>
  <g id="layer-regions">
    <polygon id="region-central" class="region" points="390,330 710,285 970,360 930,650 590,690 340,560"><title>Terras Centrais</title></polygon>
    <polygon id="region-west" class="region" points="180,260 390,330 340,560 450,760 250,650 180,500"><title>Costas do Oeste</title></polygon>
    <polygon id="region-east" class="region" points="970,260 1240,320 1320,520 1190,700 930,650 970,360"><title>Montanhas Orientais</title></polygon>
    <polygon id="region-plains" class="region" points="420,145 810,125 1070,205 970,360 710,285 390,330"><title>Grandes Planícies</title></polygon>
    <polygon id="region-south" class="region" points="450,760 590,690 930,650 1190,700 1050,850 700,900"><title>Deserto do Sul</title></polygon>
    <polygon id="region-north" class="region" points="180,180 430,90 770,115 1080,190 1070,205 810,125 420,145 180,260"><title>Norte Congelado</title></polygon>
  </g>
  <g id="layer-coasts">
    <polyline id="coast-west" class="coastline" points="185,300 180,420 200,540 250,650"><title>Costas do Oeste</title></polyline>
  </g>
  <g id="layer-biomes">
    <polygon id="biome-north" class="biome" fill="#dce8e5" points="220,175 450,110 760,130 1040,200 980,285 620,270 350,300"><title>Tundra do Norte Congelado</title></polygon>
    <polygon id="biome-ossandra" class="biome" fill="#557a52" points="470,350 690,310 790,390 750,535 560,560 430,480"><title>Floresta de Ossandra</title></polygon>
    <polygon id="biome-plains" class="biome" fill="#b8bd75" points="430,175 790,145 1020,215 940,330 710,280 420,310"><title>Campos das Grandes Planícies</title></polygon>
    <polygon id="biome-xerath" class="biome" fill="#d8b66f" points="500,710 900,670 1120,760 1030,845 700,885 460,790"><title>Deserto de Xerath</title></polygon>
    <polygon id="biome-west-coast" class="biome" fill="#7f9e79" points="205,285 370,340 330,560 420,720 270,640 205,500"><title>Costa marítima ocidental</title></polygon>
    <polygon id="biome-east-alpine" class="biome" fill="#9a998f" points="990,280 1210,330 1290,510 1170,670 960,630 1000,390"><title>Faixa alpina oriental</title></polygon>
  </g>
  <g id="layer-subregions">
    <polygon id="subregion-valgard-valley" class="subregion" points="610,450 790,440 820,590 640,620"><title>Vale de Valgard</title></polygon>
    <polygon id="subregion-ashvale-valley" class="subregion" points="800,550 940,520 970,650 850,680"><title>Vale de Ashvale</title></polygon>
    <polygon id="subregion-eastern-hills" class="subregion" points="760,320 960,330 970,430 800,450"><title>Colinas Orientais</title></polygon>
  </g>
  <g id="layer-territories">
    <polygon id="territory-valgard" class="territory" points="600,430 790,430 820,590 620,620 560,520"><title>Território de Valgard</title></polygon>
    <polygon id="territory-fenhollow" class="territory" points="760,340 930,350 930,470 790,490"><title>Território de Fenhollow</title></polygon>
    <polygon id="territory-kragmoor" class="territory" points="980,420 1210,390 1230,650 1040,650"><title>Território de Kragmoor</title></polygon>
    <polygon id="territory-thalmoor" class="territory" points="200,400 370,420 380,680 250,670 190,570"><title>Território de Thalmoor</title></polygon>
    <polygon id="territory-rhenmark" class="territory" points="520,170 930,170 980,300 650,320"><title>Território nômade de Rhenmark</title></polygon>
    <polygon id="territory-xerath" class="territory" points="500,710 980,680 1080,830 700,880 470,790"><title>Território de Xerath</title></polygon>
    <polygon id="territory-ashvale" class="territory" points="810,540 950,520 970,650 850,680"><title>Vale neutro de Ashvale</title></polygon>
  </g>
  <g id="layer-lakes">
    <polygon id="lake-winds" class="lake" points="620,205 660,185 710,205 700,240 650,245"><title>Lago dos Ventos — seasonal</title></polygon>
  </g>
  <g id="layer-routes">
    <polyline id="route-valgard-fenhollow" class="route" points="700,520 760,475 835,410"><title>Trilha Valgard–Fenhollow — ida 1 travel-day; volta 1 travel-day; distância 20–28 km</title></polyline>
    <polyline id="route-valgard-ashvale" class="route" points="700,520 790,560 885,595"><title>Trilha Valgard–Ashvale — ida 1 travel-day; volta 1 travel-day; distância 20–28 km</title></polyline>
    <polyline id="route-valgard-kragmoor" class="route" points="700,520 835,410 970,440 1090,500"><title>Rota Valgard–Kragmoor — ida 3–4 travel-day; volta 3–4 travel-day; distância 48–72 km</title></polyline>
    <polyline id="route-valgard-thalmoor" class="route" points="700,520 560,560 430,590 300,620"><title>Rota Valgard–Thalmoor — ida 4–5 travel-day; volta 4–5 travel-day; distância 80–120 km</title></polyline>
    <polyline id="route-thalmoor-xerath" class="route" points="300,620 420,720 580,790 760,790"><title>Rota Terrestre Costeira Thalmoor–Xerath — ida 7–10 travel-day; volta 7–10 travel-day; distância 150–240 km</title></polyline>
    <polyline id="route-lumen-fluvial" class="route" points="700,520 650,555 530,590 410,625 335,640 300,620"><title>Rota Fluvial do Lumen — ida 2–3 travel-day; volta 3–5 travel-day; distância 70–110 km</title></polyline>
    <polyline id="route-thalmoor-xerath-maritime" class="route" points="300,620 330,710 460,820 620,850 760,790"><title>Rota Marítima Thalmoor–Xerath — ida 3–5 travel-day; volta 3–5 travel-day; distância 180–320 km</title></polyline>
  </g>
  <g id="layer-relief">
    <polyline id="relief-eastern-mountains" class="relief" points="970,260 1030,350 1080,430 1140,520 1190,620 1220,700"><title>Montanhas Orientais — altitude não definida</title></polyline>
    <polyline id="relief-grey-mountains" class="relief" points="1120,290 1180,360 1220,430 1250,500"><title>Montanhas Cinzentas — altitude não definida</title></polyline>
    <polyline id="relief-eastern-hills" class="relief" points="780,340 850,360 930,390"><title>Colinas Orientais — altitude não definida</title></polyline>
    <polyline id="relief-western-hills" class="relief" points="520,440 560,500 590,560"><title>Colinas a oeste de Valgard — altitude não definida</title></polyline>
    <polyline id="relief-valgard-valley" class="relief" points="640,500 700,540 780,580"><title>Vale de Valgard — altitude não definida</title></polyline>
    <polyline id="relief-ashvale-valley" class="relief" points="820,560 880,600 940,630"><title>Vale de Ashvale — altitude não definida</title></polyline>
    <polyline id="relief-vigil-peak" class="relief" points="1190,340 1210,305 1230,340"><title>Pico da Vigília — altitude não definida</title></polyline>
    <polyline id="relief-kragmoor-plateau" class="relief" points="1030,455 1100,440 1160,480 1100,530 1030,510"><title>Planalto de Kragmoor — altitude não definida</title></polyline>
  </g>
  <g id="layer-rivers">
    <polyline id="river-lumen" class="river" points="1040,360 960,400 870,455 760,515 650,555 530,590 410,625 335,640"><title>Rio Lumen</title></polyline>
    <text class="feature-label" x="650" y="537">Rio Lumen</text>
    <polyline id="river-fenhollow" class="river" points="900,370 850,410 800,470 760,515"><title>Riacho de Fenhollow</title></polyline>
    <text class="feature-label" x="800" y="452">Riacho de Fenhollow</text>
  </g>
  <g id="layer-region-labels">
    <text id="label-region-central" class="region-label" x="690" y="520" text-anchor="middle">Terras Centrais</text>
    <text id="label-region-west" class="region-label" x="300" y="520" text-anchor="middle">Costas do Oeste</text>
    <text id="label-region-east" class="region-label" x="1120" y="500" text-anchor="middle">Montanhas Orientais</text>
    <text id="label-region-plains" class="region-label" x="750" y="235" text-anchor="middle">Grandes Planícies</text>
    <text id="label-region-south" class="region-label" x="790" y="795" text-anchor="middle">Deserto do Sul</text>
    <text id="label-region-north" class="region-label" x="610" y="150" text-anchor="middle">Norte Congelado</text>
  </g>
  <g id="layer-settlements">
    <g id="settlement-valgard"><circle class="settlement" cx="700" cy="520" r="7"/><text class="settlement-label" x="715" y="508">Valgard</text><title>Valgard — village — população aproximada: 600</title></g>
    <g id="settlement-fenhollow"><circle class="settlement" cx="835" cy="410" r="7"/><text class="settlement-label" x="850" y="398">Fenhollow</text><title>Fenhollow — village — população aproximada: 350</title></g>
    <g id="settlement-ashvale"><circle class="neutral" cx="885" cy="595" r="7"/><text class="settlement-label" x="900" y="583">Ashvale</text><title>Ashvale — meeting-place — população desconhecida</title></g>
    <g id="settlement-kragmoor"><circle class="settlement" cx="1090" cy="500" r="7"/><text class="settlement-label" x="1105" y="488">Kragmoor</text><title>Kragmoor — fortress — população aproximada: 900</title></g>
    <g id="settlement-thalmoor"><circle class="settlement" cx="300" cy="620" r="9"/><text class="settlement-label" x="315" y="608">Thalmoor</text><title>Thalmoor — port — população aproximada: 1200</title></g>
    <g id="settlement-rhenmark"><circle class="settlement" cx="760" cy="235" r="7"/><text class="settlement-label" x="775" y="223">Rhenmark</text><title>Rhenmark — mobile-camp — população aproximada: 700</title></g>
    <g id="settlement-xerath"><circle class="settlement" cx="760" cy="790" r="9"/><text class="settlement-label" x="775" y="778">Xerath</text><title>Xerath — oasis-city — população aproximada: 1500</title></g>
  </g>
  <g id="layer-natural-ports">
    <circle id="natural-port-thalmoor" class="natural-port" cx="300" cy="620" r="6"><title>Porto Natural de Thalmoor</title></circle>
  </g>
  <g id="layer-legendary">
    <text id="legend-islands-glass" class="legendary-note" x="980" y="920">LENDÁRIO · Arquipélago de Vidro · localização desconhecida</text>
  </g>
  <g id="layer-unknown-regions">
    <polygon id="unknown-east" class="unknown" points="1220,90 1600,90 1600,850 1450,800 1350,650 1390,470 1320,260"><title>Além das Montanhas Orientais — extensão não mapeada</title></polygon>
    <text id="label-unknown-east" class="unknown-label" x="1418.57" y="458.571" text-anchor="middle">TERRAS DESCONHECIDAS</text>
    <polygon id="unknown-south" class="unknown" points="420,820 1080,800 1450,800 1600,850 1600,1000 410,1000"><title>Além do Deserto do Sul — extensão não mapeada</title></polygon>
    <text id="label-unknown-south" class="unknown-label" x="1093.33" y="878.333" text-anchor="middle">TERRAS DESCONHECIDAS</text>
  </g>
  <g id="layer-metadata" data-world-engine="1.0.0" data-engine-status="stable"><text x="380" y="54" font-size="32" font-weight="700">Eldrath</text><text x="380" y="82" font-size="15">snapshot 3.1.0 · stable · World Engine 1.0.0</text><text x="380" y="106" font-size="13">fatos canônicos · geometrias e coordenadas aproximadas · 0 erros</text></g>
</svg>
